<?xml version="1.0" encoding="UTF-8" standalone="no"?>
<svg
   viewBox="0 0 192.67 54.65"
   version="1.1"
   id="svg26"
   sodipodi:docname="ethz_logo_white.svg"
   inkscape:version="1.1.1 (1:1.1+202109281949+c3084ef5ed)"
   xmlns:inkscape="http://www.inkscape.org/namespaces/inkscape"
   xmlns:sodipodi="http://sodipodi.sourceforge.net/DTD/sodipodi-0.dtd"
   xmlns="http://www.w3.org/2000/svg"
   xmlns:svg="http://www.w3.org/2000/svg"
   xmlns:rdf="http://www.w3.org/1999/02/22-rdf-syntax-ns#"
   xmlns:cc="http://creativecommons.org/ns#"
   xmlns:dc="http://purl.org/dc/elements/1.1/">
  <defs
     id="defs30" />
  <sodipodi:namedview
     id="namedview28"
     pagecolor="#ffffff"
     bordercolor="#666666"
     borderopacity="1.0"
     inkscape:pageshadow="2"
     inkscape:pageopacity="0.0"
     inkscape:pagecheckerboard="0"
     showgrid="false"
     inkscape:zoom="6.8614731"
     inkscape:cx="92.035631"
     inkscape:cy="27.326494"
     inkscape:window-width="1848"
     inkscape:window-height="1016"
     inkscape:window-x="72"
     inkscape:window-y="27"
     inkscape:window-maximized="1"
     inkscape:current-layer="svg26" />
  <title
     id="title2">ETH Zürich</title>
  <g
     id="ETH_zurich_logo"
     data-name="ETH zurich logo"
     style="fill:#ffffff;fill-opacity:1">
    <g
       id="ETH_Zurich_short"
       data-name="ETH Zurich short"
       style="fill:#ffffff;fill-opacity:1">
      <path
         d="M118.45,34.56c-1.11,5.5-5.35,5.78-6.2,5.78-2.4,0-3.83-1.38-3.83-3.7a11.05,11.05,0,0,1,.22-2l2.62-13.09,0,0h-3.11L105.49,35l0,.19a9.31,9.31,0,0,0-.22,1.93,5.64,5.64,0,0,0,5.89,6,8,8,0,0,0,6.18-2.52l-.41,2.21v.05H120l4.23-21.26v0H121l-2.59,13Z"
         id="path4"
         style="fill:#ffffff;fill-opacity:1" />
      <path
         d="M139.61,21.27a7.29,7.29,0,0,0-5.86,2.7l.48-2.39v0h-3.06L127,42.79v.05h3.11l2.59-13c.66-3.35,3.23-5.77,6.11-5.77a3.53,3.53,0,0,1,3,1.49l0,0,2.52-2.25,0,0a5.78,5.78,0,0,0-4.64-2Z"
         id="path6"
         style="fill:#ffffff;fill-opacity:1" />
      <polygon
         points="88.29 24.23 88.28 24.28 98.87 24.28 84.77 40.23 84.76 40.23 84.23 42.84 99.26 42.84 99.8 40.08 88.56 40.08 102.71 24.14 102.71 24.13 103.24 21.53 88.82 21.53 88.29 24.23 88.29 24.23"
         id="polygon8"
         style="fill:#ffffff;fill-opacity:1" />
      <polygon
         points="144.67 42.79 144.66 42.84 147.77 42.84 152 21.53 148.95 21.53 144.67 42.79 144.67 42.79"
         id="polygon10"
         style="fill:#ffffff;fill-opacity:1" />
      <path
         d="M186.76,21.27a7.91,7.91,0,0,0-6.08,2.4l2.41-11.87H180l-6.23,31h3.1l2.59-13c1.11-5.49,5.4-5.77,6.24-5.77a3.44,3.44,0,0,1,3.79,3.7,12.16,12.16,0,0,1-.21,2l-2.64,13.14h3.1l2.73-13.43a10.84,10.84,0,0,0,.22-2.11,5.65,5.65,0,0,0-5.91-6Z"
         id="path12"
         style="fill:#ffffff;fill-opacity:1" />
      <path
         d="M166.18,21.27c-5.63,0-9.58,4-10.85,10.88a19.13,19.13,0,0,0-.3,3.28c0,4.73,2.87,7.67,7.49,7.67a9.85,9.85,0,0,0,7.09-3l0,0-1.79-2.19,0,0,0,0a6.54,6.54,0,0,1-5.09,2.44c-2.2,0-4.56-1.31-4.56-5a16.39,16.39,0,0,1,.34-3.18,12.18,12.18,0,0,1,2.75-6.09,6.32,6.32,0,0,1,4.66-2A4.47,4.47,0,0,1,170,26.37l0,.05,2.28-1.93,0,0,0,0a6.92,6.92,0,0,0-6.15-3.16Z"
         id="path14"
         style="fill:#ffffff;fill-opacity:1" />
      <polygon
         points="150.1 15.68 153.21 15.68 153.99 11.8 150.89 11.8 150.1 15.68 150.1 15.68"
         id="polygon16"
         style="fill:#ffffff;fill-opacity:1" />
      <polygon
         points="119.92 15.68 123.03 15.68 123.8 11.8 120.7 11.8 119.92 15.68 119.92 15.68"
         id="polygon18"
         style="fill:#ffffff;fill-opacity:1" />
      <polygon
         points="111.64 15.68 114.75 15.68 115.52 11.8 112.42 11.8 111.64 15.68 111.64 15.68"
         id="polygon20"
         style="fill:#ffffff;fill-opacity:1" />
      <polygon
         points="70.16 23.83 63.18 23.83 65.63 11.8 6.26 11.8 0.03 42.84 23.7 42.84 25.25 35.08 11.27 35.08 12.12 30.81 26.09 30.81 27.5 23.83 13.52 23.83 14.37 19.56 36.52 19.56 31.84 42.84 41.55 42.84 46.22 19.56 54.37 19.56 49.69 42.84 59.4 42.84 61.79 30.81 68.78 30.81 66.38 42.84 76.08 42.84 82.32 11.8 72.62 11.8 70.16 23.83 70.16 23.83"
         id="polygon22"
         style="fill:#ffffff;fill-opacity:1" />
    </g>
  </g>
  <metadata
     id="metadata4233">
    <rdf:RDF>
      <cc:Work
         rdf:about="">
        <dc:title>ETH Zürich</dc:title>
      </cc:Work>
    </rdf:RDF>
  </metadata>
</svg>
